<?xml version="1.0" standalone="no"?>
<!DOCTYPE svg PUBLIC "-//W3C//DTD SVG 1.1//EN" "http://www.w3.org/Graphics/SVG/1.1/DTD/svg11.dtd">
<svg xmlns="http://www.w3.org/2000/svg">
<metadata>Copyright (C) 2018 by original authors @ fontello.com</metadata>
<defs>
<font id="fontello" horiz-adv-x="1000" >
<font-face font-family="fontello" font-weight="400" font-stretch="normal" units-per-em="1000" ascent="850" descent="-150" />
<missing-glyph horiz-adv-x="1000" />
<glyph glyph-name="earrings-7" unicode="&#xe800;" d="M396 311c-28 42-70 72-120 84-10 2-18 4-27 4v362c15 8 25 23 25 41 0 26-19 46-45 46-26 0-46-20-46-46 0-18 12-33 28-41v-364c-76-10-143-66-161-145-12-50-2-100 24-144 21-35 53-61 91-75-18-14-30-34-36-56-6-28-2-55 14-79 14-24 38-40 66-46 8-2 16-2 24-2 20 0 37 6 55 16 24 14 40 38 46 65 6 28 2 56-14 80-6 8-12 16-20 24 12 4 24 10 36 16 44 26 74 69 84 117 11 50 2 100-24 143z m-102-372c-4-15-14-31-28-39-13-10-31-12-49-8-16 4-32 14-40 28-10 13-12 31-8 49 8 34 44 56 78 48 15-4 31-14 39-28 8-16 12-34 8-50z m86 237c-10-40-32-71-68-93-34-22-73-28-113-18-82 18-131 99-111 179 17 81 99 131 178 111 40-10 72-32 94-68 22-31 30-71 20-111z m546 137c-27 40-69 70-119 82-8 2-14 2-22 4v364c16 8 26 23 26 41 0 26-20 46-46 46-25 0-45-20-45-46 0-18 12-33 28-41v-362c-80-8-148-64-167-145-12-50-2-100 23-144 22-35 56-63 96-77-16-14-28-34-34-56-6-28-2-55 14-79 14-24 38-40 66-46 8-2 15-2 23-2 20 0 38 6 56 16 24 14 40 38 46 65s2 56-14 80c-6 10-14 18-22 24 10 4 22 10 32 16 44 26 73 69 83 117 12 50 2 100-24 143z m-97-374c-4-15-14-31-28-39-14-10-32-12-49-8-16 4-32 14-40 28-10 13-12 31-8 49 4 16 14 32 28 40 10 6 22 10 33 10 4 0 10 0 14-2 16-4 32-14 40-28 12-16 14-34 10-50z m82 237c-10-40-32-71-68-93-34-22-74-28-113-18-82 18-132 99-112 179 18 81 100 131 179 111 40-10 72-32 94-68 22-31 30-71 20-111z" horiz-adv-x="1000" />

<glyph glyph-name="earrings-6" unicode="&#xe801;" d="M389 102h-133v133l196 197c1 1 1 3 3 5v1c0 2 0 4 2 5 0 0 0 0 0 2 0 0 0 0 0 2 0 2 0 3 0 3v2c0 0 0 0 0 2l-77 135c-3 6-8 9-15 9h-248c-7 0-12-3-15-9l-76-135c0 0 0 0 0-2v-2c0-1 0-3 0-3s0 0 0-2c0 0 0 0 0-2 0-1 0-3 1-5v-1c0-2 2-4 4-5l191-194v-136h-130c-51 0-92-41-92-91s41-92 92-92 91 40 91 92c0 10-6 16-17 16s-17-6-17-16c0-33-25-58-57-58-33 0-58 25-58 58 0 32 25 57 58 57h130v-166c0-10 7-17 17-17 11 0 17 8 17 17v166h133c32 0 58-25 58-57 0-33-26-58-58-58-32 0-58 25-58 58 0 10-7 16-17 16-10 0-17-6-17-16 0-52 41-92 92-92 51 0 92 40 92 92s-41 91-92 91z m-111 204l46 120h75l-121-120z m75 256l58-102h-88l-56 102h86z m-69-102h-92l46 84 46-84z m-157 102h84l-56-102h-84l56 102z m-47-136h71l43-113-114 113z m158-130l-50 130h99l-49-130z m670 23h-132v133l195 197c2 2 2 3 4 5v2c0 1 0 3 1 5 0 0 0 0 0 1 0 0 0 0 0 2 0 2 0 4 0 4v1c0 0 0 0 0 2l-76 136c-4 5-9 8-15 8h-248c-7 0-12-3-16-8l-76-136c0 0 0 0 0-2v-1c0-2 0-4 0-4s0 0 0-2c0 0 0 0 0-1 0-2 0-4 2-5v-2c0-2 1-3 3-5l192-194v-136h-131c-51 0-91-40-91-91 0-51 40-92 91-92 51 0 92 41 92 92 0 10-7 17-17 17-10 0-17-7-17-17 0-32-26-58-58-58-32 0-57 26-57 58 0 32 25 58 57 58h131v-167c0-10 7-17 17-17 10 0 17 9 17 17v167h132c33 0 58-26 58-58s-25-58-58-58c-32 0-57 26-57 58 0 10-7 17-17 17-11 0-17-7-17-17 0-51 40-92 91-92 51 0 92 41 92 92 2 51-41 91-92 91z m-110 204l46 121h75l-121-121z m75 257l57-102h-88l-56 102h87z m-68-102h-92l46 83 46-83z m-158 102h83l-56-102h-83l56 102z m-46-136h71l43-114-114 114z m158-131l-49 131h98l-49-131z" horiz-adv-x="1000" />

<glyph glyph-name="earrings-5" unicode="&#xe802;" d="M589 172l-34 124c0 2-1 2-1 3 0 2-2 2-2 3 0 0 0 0 0 1-1 2-1 2-3 2h-1c-2 0-3 1-4 1h-233l-81 80 77 77c14 14 23 34 23 54 0 22-9 40-23 55s-34 22-54 22c-22 0-40-8-55-22s-22-35-22-55c0-21 8-40 22-54 6-6 15-6 20 0 6 6 6 14 0 20-8 9-14 22-14 34s6 26 14 35c19 18 50 18 70 0 19-19 19-50 0-70l-78-76-100 99c-6 5-14 5-20 0-6-6-6-15 0-20l100-99-79-78c-18-19-50-19-70 0-18 18-18 50 0 70 19 18 52 18 70 0 6-6 15-6 20 0 6 5 6 14 0 20-14 14-34 22-54 22-21 0-40-8-54-22s-23-35-23-55c0-21 9-40 23-54s34-23 54-23c21 0 40 9 54 23l79 79 78-79 2-234c0-1 0-3 1-4v-2c0-1 1-2 1-2s0 0 2 0c1-2 1-2 3-2 0 0 1 0 1-1 0 0 0 0 2 0l125-36c2 0 3 0 4 0 5 0 8 2 10 4l146 146c4 4 6 8 4 14z m-84 106l-40-42-94 42h134z m-63-63l-60-60-47 108 107-48z m-124 17l44-98-44-45v143z m109-197l-95 27 53 53 94-27-52-53z m-20 102l54 55 21-77-75 22z m104-16l-27 94 50 50 27-94-50-50z m466 288c-31 31-80 31-110 1l-78-78-79 78-1 234c0 2 0 3-1 5v1c0 1-2 3-2 3s0 0-1 0c-2 1-2 1-3 1 0 0-2 0-2 2 0 0 0 0-1 0l-125 35c-5 2-10 0-15-4l-147-144c-4-4-5-8-4-14l36-126c0 0 0 0 0-1 0 0 0-2 1-2 0-1 2-1 2-2 0 0 0 0 0-2 1-1 1-1 2-1h2c1 0 3-2 4-2l233-1 81-80-77-77c-14-14-23-34-23-54 0-22 9-40 23-54 14-15 34-23 54-23 22 0 40 8 54 23 30 29 30 79 0 109-5 6-14 6-20 0-5-5-5-14 0-20 9-8 15-21 15-34s-6-26-15-34c-18-19-50-19-70 0-18 18-18 50 0 70l79 74 100-98c3-3 5-5 10-5 4 0 7 2 10 5 5 5 5 14 0 20l-100 98 78 78c19 19 50 19 70 0 19-18 19-49 0-69-18-19-51-19-70 0-5 5-14 5-20 0-5-6-5-15 0-20 30-30 80-30 110 0 14 14 23 34 23 54 0 21-9 40-23 54z m-405 254l94-27-53-53-94 27 53 53z m20-101l-54-56-22 77 76-21z m-154-35l50 50 27-94-50-50-27 94z m54-107l42 42 92-42h-134z m64 63l60 60 47-108-107 48z m125-17l-45 98 45 45v-143z" horiz-adv-x="1000" />

<glyph glyph-name="diamond-ring" unicode="&#xe803;" d="M527 629l112 112c1 2 1 3 3 4v2c0 1 0 2 1 4 0 0 0 0 0 1 0 0 0 0 0 1 0 2 0 3 0 3v1c0 0 0 0 0 2l-48 84c-2 4-6 7-12 7h-154c-6 0-10-3-12-7l-48-84c0 0 0 0 0-2v-1c0-1 0-3 0-3s0 0 0-1c0 0 0 0 0-1 0-2 0-3 1-4v-2c0-1 2-2 3-4l111-112c-208-9-373-180-373-390 0-214 174-389 389-389s389 175 389 389c2 207-160 377-362 390z m9 48l24 62h37l-61-62z m38 147l32-59h-48l-31 59h47z m-46-59h-48l24 43 24-43z m-92 59h46l-32-59h-47l33 59z m-23-85h35l22-57-57 57z m65 0h53l-27-72-26 72z m22-863c-200 0-363 163-363 363s163 363 363 363 363-163 363-363c1-200-162-363-363-363z" horiz-adv-x="1000" />

<glyph glyph-name="pendant-5" unicode="&#xe804;" d="M934 306c38 0 69 34 66 73-1 38-35 68-74 67 36 14 54 54 40 91-13 36-54 53-91 40 30 25 34 69 10 99-24 29-68 33-99 9 20 34 9 76-23 96-33 20-76 11-96-22 4 18 1 36-10 52-9 16-25 27-44 31-19 4-37 1-53-10-15-9-26-22-30-40h-55c-10 35-45 58-83 50s-61-46-53-83c-20 33-63 44-97 24-16-10-28-26-32-43s-1-36 8-52c-29 25-73 21-99-8-12-15-17-32-16-51 2-19 11-35 24-48-17 6-36 6-53-2-18-8-31-21-38-38s-6-37 0-54 22-31 38-37c-39 1-71-29-74-66-3-39 27-72 66-74-18-5-34-16-42-33-9-16-12-35-6-54 8-30 37-52 68-52 5 0 12 2 19 3-33-22-41-66-19-98 13-20 36-31 59-31 13 0 27 4 39 12-23-30-18-75 13-97 13-10 28-15 43-15 21 0 41 9 55 27-12-36 6-77 44-89 8-2 15-4 23-4 29 0 56 19 66 47 0-39 31-69 70-69 19 0 36 6 50 20s20 30 21 49c5-17 19-32 35-40 9-5 20-8 32-8 8 0 15 1 23 4 36 12 56 52 44 88 13-18 35-28 56-28 15 0 29 4 41 14 15 10 25 28 27 47 3 18-2 36-13 52 13-8 27-12 41-12 4 0 8 0 14 1 18 4 35 13 45 29 22 33 14 75-17 98 7-1 12-2 19-2 12 0 22 2 33 9 16 9 28 24 33 41 11 38-10 77-48 87z m-6 111c24 2 44-17 45-41 1-11-3-21-11-31-8-8-18-13-30-15-12 0-23 4-31 11-8 8-14 19-15 31 0 12 4 23 11 31 8 8 19 13 31 14z m-42 134c5 2 11 3 16 3 6 0 12-1 18-4 10-5 18-13 22-24 4-11 4-23-1-34-5-10-13-18-24-22-11-4-23-4-34 1s-18 13-22 24c-4 11-4 23 1 33 5 11 13 19 24 23z m-83 113c8 6 18 10 28 10 12 0 26-5 34-16 14-18 13-45-6-61-18-15-45-14-61 5-15 19-14 46 5 62z m-114 80c8 13 23 20 38 20 8 0 16-3 23-7 20-12 26-38 14-60-12-20-38-27-60-15-9 7-17 16-20 27-3 12 0 24 5 35z m-132 39c3 10 9 21 19 27 6 4 14 6 22 6 3 0 7 0 10-1 10-3 21-9 27-19 6-9 8-21 5-33-5-23-30-38-52-32-23 5-36 29-31 52z m-157 33c23 6 47-9 53-33 2-11 0-23-6-32-6-10-16-16-27-19-22-5-46 9-52 33-6 23 10 46 32 51z m-162-83c3 11 10 22 21 27 20 12 46 5 60-15 12-20 5-47-15-60-20-12-47-5-60 15-6 10-8 23-6 33z m-96-72c8 11 21 15 34 15 9 0 20-4 28-11 9-8 14-17 14-29 2-12-2-23-10-33-16-18-43-20-62-5-9 8-15 17-15 30 0 13 4 25 11 33z m-78-163c-4 10-5 22 0 33 4 11 12 19 23 24 6 3 11 4 18 4 5 0 10-1 16-2 22-10 33-35 24-57-10-22-35-33-56-24-13 3-21 11-25 22z m-33-115c1 22 20 41 43 41 1 0 1 0 2 0 25-1 43-21 42-45 0-12-5-23-15-30-8-8-20-12-31-11-25-1-42 21-41 45z m70-184c-25-5-49 8-54 31-3 11-1 23 4 34 5 10 15 17 27 20 4 1 8 1 12 1 19 0 36-12 41-32 7-23-6-47-30-54z m88-91c-3-12-9-21-19-28-20-13-47-8-60 12s-8 47 12 60c7 6 16 8 24 8 3 0 5 0 8-1 12-3 22-9 28-19 7-9 10-21 7-32z m87-119c-15-19-42-23-62-8-18 15-22 42-8 62 8 10 22 17 35 17 9 0 19-3 27-9 19-16 23-43 8-62z m128-53c-8-23-32-35-54-27-23 8-35 32-27 55 6 17 22 29 41 29 4 0 10-1 14-3 10-4 20-12 25-21 4-11 5-23 1-33z m126-41c-8-8-19-12-31-12-24 0-42 20-42 45s20 42 42 42c24 0 43-20 43-44 2-11-4-23-12-31z m121 12c-11-4-23-2-34 3-11 5-19 15-21 26-8 22 5 46 28 54 4 2 9 3 13 3 19 0 35-12 42-29 6-24-6-50-28-57z m151 100c-2-13-8-22-18-29-9-6-20-9-32-8-12 2-21 8-28 18-15 19-10 47 10 60 8 5 16 9 25 9 3 0 4 0 7 0 12-1 21-8 28-17 6-11 9-23 8-33z m-7 143c-11-16-15-35-11-52 3-11 7-22 14-31-10 6-19 11-31 12-19 3-37-3-52-14-23-16-32-48-22-76-17 24-49 36-79 26-29-10-48-38-48-69-2 11-9 20-17 28-13 14-31 20-50 22-30 0-57-20-67-48 0 10-1 22-6 32-8 17-23 29-40 36-30 11-62-1-79-26 10 29 1 61-23 81-25 19-59 19-83 1 7 10 12 19 15 30 4 18 0 37-11 52-11 16-27 27-44 29-11 3-23 2-34-1 26 16 38 47 30 78-8 30-35 49-64 50 10 3 21 8 29 16 13 12 23 30 23 49 1 30-18 58-46 69 2 0 4 0 6 0 28 0 54 16 65 44 7 18 7 36 0 54-4 11-11 19-20 25 8-4 18-5 27-5 1 0 4 0 5 0 19 1 36 11 48 24 12 15 18 32 16 51-1 11-4 21-10 31 13-11 29-18 45-18 12 0 26 3 36 10 27 16 39 46 33 76 5-9 13-19 22-24 12-7 24-11 38-11 5 0 10 0 14 1 19 4 34 15 45 31 5 10 9 20 10 31h50c3-29 24-55 53-62 6-1 11-1 16-1 25 0 47 14 61 35-7-28 4-60 30-76 12-7 25-11 37-11 16 0 32 5 45 16-5-9-9-20-11-31-1-19 4-37 16-51 12-14 30-22 49-25 2 0 4 0 6 0 10 0 18 1 26 5-8-6-15-16-20-25-8-18-8-36-2-54 11-28 38-45 66-45 1 0 3 0 4 0-11-4-20-10-28-19-12-13-19-32-19-51 1-31 23-56 52-64-29-1-57-20-65-51-6-17-3-37 6-53 6-10 14-18 23-24-11 2-21 4-33 2-19-4-35-13-46-29z m95-62c-7-9-16-16-28-19-12-2-23 0-32 7-20 14-24 40-11 60 8 12 22 19 36 19 8 0 18-3 24-8 21-12 26-40 11-59z m66 138c-3-11-11-20-20-25-11-6-22-7-34-4-11 2-20 10-25 20-6 10-7 21-4 33 5 19 23 32 41 32 4 0 8 0 12-1 23-8 36-32 30-55z" horiz-adv-x="1000" />

<glyph glyph-name="pendant-4" unicode="&#xe805;" d="M886 412c3 17 3 30 3 49 0 215-175 389-389 389-216 0-389-175-389-389 0-15 1-29 2-45-8-6-14-12-20-20-8-15-10-31-5-47 4-16 15-30 29-38 10-5 20-8 31-8 3 0 5 0 8 0-9-9-17-20-20-33-3-16 0-32 9-47 10-13 23-23 39-27 4-1 8-1 12-1 10 0 19 3 27 7-15-27-9-61 16-81 11-8 24-13 37-13 3 0 6 0 8 0 12 1 23 7 33 15 28-15 57-27 88-34-36-9-86-24-102-37-13-11-21-27-23-44-1-18 4-34 15-47s27-21 44-23c3 0 4 0 6 0 14 0 29 6 41 15 23 19 63 108 71 127 8-1 17-1 25-1-17-38-56-121-56-152 0-42 35-77 78-77 42 0 77 35 77 77 0 31-39 114-56 152 8 0 16 1 24 2 0 0 0 0 0-1 8-17 47-107 71-127 12-9 27-15 41-15 19 0 38 8 50 23 11 13 16 29 15 47-2 17-10 32-23 44-16 13-67 28-103 37 28 7 56 18 83 32 12-9 25-14 40-14 13 0 25 4 37 12 26 18 32 53 16 79 8-4 19-7 29-7 4 0 8 0 10 1 16 3 31 12 40 26 18 25 14 60-9 80 3 0 5-1 9-1 27 0 52 17 59 45 4 28-7 55-28 70z m-755-78c-8 4-14 12-16 21s-2 19 4 27c4 8 12 14 21 16 3 2 7 2 9 2 6 0 12-2 18-4 8-5 13-13 16-22 5-19-6-37-24-43-11-2-20-1-28 3z m100-84c-1-8-7-16-15-22-8-5-17-6-26-5-10 1-18 7-23 15-6 8-7 17-6 26 2 10 7 18 15 23 6 4 14 6 20 6 11 0 23-6 30-16 5-9 6-18 5-27z m76-99c-7-8-15-12-24-14-9-1-19 2-25 7-15 12-19 34-7 50 7 9 17 13 28 13 8 0 15-3 21-7 15-12 19-33 7-49z m63-175c-8-7-17-10-27-8-9 1-18 5-25 13-7 8-9 17-8 27 1 9 5 19 13 25 11 10 60 24 100 35-18-39-42-83-53-92z m185-46c-2-28-25-51-51-51-28 0-51 23-51 51 0 20 27 83 51 131 22-48 51-111 51-131z m129 103c7-6 11-16 12-25 2-10-2-20-8-27-13-16-37-19-52-5-11 9-35 55-52 92 40-11 88-24 100-35z m56 108c-16-12-37-8-49 7-12 16-8 38 7 50 6 5 13 6 21 6 11 0 21-5 28-13 12-16 9-37-7-50z m11 149c-13-20-13-46-3-66-20 11-45 10-65-5-24-17-31-48-19-75-51-25-105-39-163-39s-115 15-166 41c12 25 4 56-18 74-19 15-45 16-66 7 4 5 5 12 7 19 2 16 0 32-10 47-13 20-37 29-60 26 18 15 26 39 19 63-4 16-15 30-30 38-12 6-25 9-38 6-2 12-2 24-2 35 0 201 163 362 364 362s362-163 362-362c0-16 0-27-1-39-31 6-60-13-70-44-6-24 2-47 19-63-6 2-13 2-20 0-16-2-31-12-40-25z m79-55c-5-8-13-13-23-15-9-1-19 0-27 6-8 5-13 13-14 22-2 10 0 19 5 27 5 8 13 14 23 15 2 0 4 0 6 0 7 0 14-3 21-7 8-5 13-13 14-23 3-9 0-18-5-25z m55 116c-6-18-26-29-43-24-19 6-29 26-24 43 4 16 19 26 33 26 3 0 7 0 10-2 18-4 29-24 24-43z" horiz-adv-x="1000" />

<glyph glyph-name="pendant-3" unicode="&#xe806;" d="M884 414c-5 11-11 17-19 22 3 16 3 29 3 47 0 203-166 367-368 367s-367-165-367-367c0-14 1-28 2-43-7-5-13-12-19-21-7-13-10-29-5-44 4-15 14-27 28-35 9-5 19-8 29-8 3 0 5 0 8 0-22-19-27-51-10-75 11-17 30-26 48-26 9 0 17 3 25 7-6-12-9-24-8-37 3-15 10-29 23-39 10-8 23-13 35-13 14 0 27 5 38 14 42-23 89-36 135-40l-55-34c-1-2-3-2-3-3-1-1-1-2-1-4v-1-1-162-1-1c0-2 1-3 1-4 0 0 0 0 2-1l1-2 1-1c0 0 0 0 1-1l90-56h1 2c1 0 2-1 3-1 2 0 3 0 4 1h1 2l89 56c0 0 0 0 2 1l1 1 1 2c0 0 0 0 1 1 2 1 2 2 2 4v1 1 161 1 1c0 1-2 3-2 4-1 1-1 2-2 2l-57 36c43 5 86 19 124 38 11-9 24-14 38-14 12 0 24 4 35 11 24 18 30 51 15 75 9-4 18-7 27-7 19 0 36 9 48 26 9 12 12 27 9 44-3 12-9 24-18 33 2 0 5-2 9-2 10 0 19 3 27 8 14 7 24 20 28 35s3 31-5 44z m-732-51c-8 3-13 11-15 20-3 9-2 18 2 25 4 8 12 13 20 15 3 2 7 2 9 2 5 0 12-2 17-4 7-4 12-12 15-20s1-18-4-26c-4-7-11-12-20-15-8-2-17-1-24 3z m95-80c-2-7-7-15-14-20-8-5-17-6-26-5-8 1-16 6-21 14-10 15-6 35 9 45 5 4 11 5 19 5 2 0 4 0 6 0 9-1 16-6 21-14 6-7 7-16 6-25z m70-95c-11-13-33-16-46-5-8 5-12 13-13 22s1 18 6 24c7 9 17 12 27 12 7 0 14-2 20-6 14-11 18-31 6-47z m176-77v-24l-36-20-17 12 53 32z m-65-55l16-10v-95l-16-10v115z m63-172l-53 33 18 11 35-20v-24z m14 45l-36 21v94l36 21 37-21v-94l-37-21z m13-45v24l35 20 18-11-53-33z m64 56l-15 10v94l15 11v-115z m-11 139l-18-12-35 20v24l53-32z m157 102c-16-12-36-8-47 6-5 8-8 17-6 24 1 9 6 17 12 22 7 3 13 6 20 6 2 0 4 0 5 0 9-1 17-6 22-13 11-14 7-35-6-45z m8 140c-8-13-12-28-8-44 1-6 3-13 6-18-19 10-43 9-62-5-13-9-20-23-23-38-1-11 0-21 5-31-48-24-99-37-154-37s-108 14-156 38c11 24 4 53-18 71-18 14-42 15-62 6 12 19 12 43-2 62-9 12-22 21-37 25-6 1-13 1-19 0 5 4 9 9 13 15 7 14 10 29 5 44-5 16-14 28-28 36-11 6-24 9-37 6-1 11-1 23-1 33 0 187 154 341 342 341 190 0 343-154 343-342 0-16 0-26-2-37-12 3-25 0-38-6-14-8-24-21-27-36s-3-30 5-44c3-6 7-10 12-15-21 3-44-5-57-24z m76-53c-10-15-31-19-47-9-7 5-12 13-13 22-2 8 0 17 5 25 5 7 12 12 21 14 3 0 4 0 6 0 7 0 13-3 19-7 8-5 13-12 14-21 2-8 0-16-5-24z m52 111c-5-18-24-28-40-23-18 5-28 24-23 41 2 9 7 15 15 20 5 2 10 4 16 4 3 0 7 0 9-2 9-2 15-7 20-15 4-7 5-16 3-25z" horiz-adv-x="1000" />

<glyph glyph-name="008-pendant-2" unicode="&#xe807;" d="M975 833c-4 10-9 17-15 17-8 1-13-5-15-12 0-4-39-394-447-564-406 170-446 560-447 564 0 7-6 13-14 12-7 0-13-7-12-14 0-4 41-401 450-580l-114-69c-2-2-3-2-3-3-1-1-1-2-1-4v-1-1-236-1-1c0-1 1-3 1-4 0 0 0 0 1-1l2-2 1-1c0 0 0 0 1-1l130-80h1 2c1 0 2-1 3-1 2 0 3 0 4 1h2 1l130 80c0 0 0 0 1 1l1 1 2 2c0 0 0 0 1 1 1 1 1 3 1 4v1 1 233 1 2c0 1-1 2-1 4-1 1-1 2-3 2l-113 70c410 177 450 575 450 579z m-491-600v-48l-56-33-36 23 92 58z m-103-81l34-22v-143l-34-21v186z m103-267l-92 57 36 24 56-34v-47z m13 70l-58 34v141l58 34 58-34v-141l-58-34z m13-70v47l56 34 36-24-92-57z m104 81l-34 21v143l34 22v-186z m-10 209l-36-23-57 33v48l93-58z" horiz-adv-x="1000" />

<glyph glyph-name="pendant-1" unicode="&#xe808;" d="M988 836c-9 2-14-5-15-12 0-4-42-418-474-597-429 179-472 593-472 597 0 7-6 14-15 12-6 0-13-7-12-15 0-4 44-427 480-615l-183-184c-2-2-2-3-3-5v-1c0-1 0-3-1-4 0 0 0 0 0-1 0 0 0 0 0-2 0-1 0-2 0-2v-2c0 0 0 0 0-1l74-134c3-4 7-6 13-6h239c5 0 10 2 12 6l75 134c0 0 0 0 0 1v2c0 1 0 2 0 2s0 0 0 2c0 0 0 0 0 1 0 1 0 3-1 4v1c0 2-2 3-3 5l-182 184c436 188 480 611 480 615 1 8-6 15-12 15z m-517-677l-51-133h-81l132 133z m-83-267l-59 106h93l58-106h-92z m65 106h98l-49-89-49 89z m159-106h-88l58 106h89l-59-106z m49 134h-77l-48 126 125-126z m-106 0h-106l53 140 53-140z" horiz-adv-x="1000" />

<glyph glyph-name="pendant" unicode="&#xe809;" d="M517 118c-5 6-14 8-19 4l-41-28c-4-2-6-6-5-11l1-44c0-7 7-13 13-13 8 0 13 6 13 13l-1 37 35 24c7 4 8 11 4 18z m462 718c0 6-6 13-12 14-8 1-13-5-14-12 0-4-41-399-453-571-411 172-451 567-452 571 0 7-7 13-15 12-6 0-13-7-11-14 0-4 41-405 451-585l-135-90c-2-2-3-2-3-3-1-1-1-2-1-4v-1-1l5-195v-2-1c0-1 1-3 1-4 2-1 3-3 4-4l164-95h1 2c1 0 2-1 3-1 2 0 3 0 4 1h2 1l157 104c0 0 0 0 2 2l1 1 1 1c0 0 0 0 1 1 2 2 2 3 2 4v2 1l-5 195v1 2c0 1-2 2-2 4-1 1-1 2-2 2l-142 82c403 182 443 579 445 583z m-488-605l1-66-72-45-51 32 122 79z m-131-104l48-30 2-86-46-32-4 148z m15-170l48 33 76-40 1-66-125 73z m137 15l-76 41-2 85 73 46 75-40 3-86-73-46z m15-88l-1 66 73 44 51-31-123-79z m132 104l-48 30-3 86 47 32 4-148z m-17 171l-48-33-76 40-1 66 125-73z" horiz-adv-x="1000" />

<glyph glyph-name="diamond-4" unicode="&#xe80a;" d="M912 383h-29v24c0 9-5 14-14 14-8 0-14-5-14-14v-24h-28c-9 0-14-5-14-14 0-8 5-14 14-14h28v-24c0-9 6-14 14-14 7 0 14 5 14 14v24h29c8 0 14 6 14 14 0 9-6 14-14 14z m-665 429h-28v24c0 8-6 14-15 14s-14-6-14-14v-24h-28c-8 0-14-6-14-14 0-9 6-14 14-14h28v-24c0-9 6-15 14-15s15 6 15 15v24h28c8 0 14 5 14 14 0 8-6 14-14 14z m-133-77h-17v15c0 8-6 14-14 14s-14-6-14-14v-15h-17c-9 0-14-5-14-14 0-8 5-14 14-14h17v-14c0-8 5-14 14-14s14 6 14 14v14h17c8 0 14 7 14 14 0 9-6 14-14 14z m834-490h-17v14c0 8-5 14-14 14-8 0-14-6-14-14v-14h-17c-8 0-14-6-14-14 0-9 6-15 14-15h17v-14c0-8 6-14 14-14 9 0 14 6 14 14v14h17c9 0 15 6 15 15 0 7-8 14-15 14z m-176 380c0 2-2 3-2 4-1 2-1 3-3 3l-315 197h-1-2c-1 0-3 1-4 1-2 0-3 0-4-1h-2-1l-313-195c-1-2-3-2-3-3-1-2-1-3-1-4v-2-1-566-1-2c0-1 1-3 1-4 0 0 0 0 2-2l1-1 2-1c0 0 0 0 1-2l313-194h1 1c2 0 3-1 5-1 1 0 3 0 4 1h1 2l312 194c0 0 0 0 2 2l1 1 2 1c0 0 0 0 1 2 1 1 1 3 1 4v2 1 564c-2 0-2 2-2 3z m-313 166l273-169-117-75-156 89v155z m-28 0v-155l-156-89-117 75 273 169z m-285-196l115-73v-364l-115-73c0 0 0 510 0 510z m286-707h-1l-272 170 118 75 155-89v-156z m13 180l-156 90v364l156 90 155-90v-364l-155-90z m14-180v156l156 89 117-75-273-170z m284 195l-114 74v365l114 73v-512z m-285 477c-5 6-13 9-20 4l-106-60c-5-3-7-8-7-13v-262c0-8 5-14 14-14 8 0 14 6 14 14v255l99 56c7 5 8 13 6 20z" horiz-adv-x="1000" />

<glyph glyph-name="diamond-3" unicode="&#xe80b;" d="M843 456h-28v25c0 8-6 14-15 14-8 0-14-6-14-14v-25h-29c-9 0-15-6-15-14 0-9 6-15 15-15h29v-24c0-9 6-15 14-15 9 0 15 6 15 15v24h28c9 0 15 6 15 15 0 8-6 14-15 14z m-572 355h-29v25c0 8-6 14-15 14-8 0-14-6-14-14v-25h-29c-9 0-14-6-14-14 0-9 5-15 14-15h29v-24c0-9 6-15 14-15 9 0 15 6 15 15v24h29c8 0 14 6 14 15 0 8-6 14-14 14z m-163-146h-18v15c0 8-6 14-14 14-9 0-15-6-15-14v-15h-17c-9 0-14-5-14-14s7-15 14-15h17v-14c0-9 6-14 15-14 8 0 14 5 14 14v14h18c8 0 14 6 14 15s-6 14-14 14z m875-324c0 1 0 3 0 3v1c0 0 0 0 0 1l-181 324c-3 4-8 7-13 7h-582c-6 0-10-3-13-7l-179-324c0 0 0 0 0-1v-1c0-2 0-3 0-3s0 0 0-2c0 0 0 0 0-1 0-2 0-3 2-5v-1c0-1 1-3 3-4l470-474c3-3 6-4 10-4 4 0 7 1 10 4l471 474c1 1 1 3 2 4v1c0 2 0 3 2 5-2 1-2 1-2 3z m-767 307h255l-161-293h-257l163 293z m277-20l150-274h-300l150 274z m-430-302h245l152-398-397 398z m430-410l-155 410h311l-156-410z m29-5l157 415h255l-412-415z m154 444l-160 293h265l163-293h-268z m-415 250c-8 4-16 1-21-6l-91-157c-4-8-1-16 6-21 3-1 5-1 7-1 5 0 10 3 13 7l91 158c3 7 0 15-5 20z" horiz-adv-x="1000" />

<glyph glyph-name="diamond-2" unicode="&#xe80c;" d="M971 180h-29v25c0 8-6 14-14 14-9 0-15-6-15-14v-25h-29c-8 0-14-6-14-14 0-9 6-15 14-15h29v-25c0-8 6-14 15-14 8 0 14 6 14 14v25h29c9 0 15 6 15 15s-8 14-15 14z m-166-210h-18v15c0 8-5 14-14 14-9 0-15-6-15-14v-15h-17c-9 0-14-6-14-14 0-9 5-15 14-15h17v-14c0-9 6-15 15-15 9 0 14 6 14 15v14h18c8 0 14 6 14 15 0 8-7 14-14 14z m-625 841h-18v14c0 9-6 15-14 15-9 0-15-6-15-15v-14h-17c-9 0-15-6-15-14s6-15 15-15h17v-14c0-9 6-15 15-15 8 0 14 6 14 15v14h18c8 0 14 6 14 15s-6 14-14 14z m652-219c0 2-1 3-1 5-2 1-2 3-3 3 0 0 0 0-2 0l-396 249h-2-1c-1 0-3 1-4 1-2 0-3 0-5-1h-1-2l-396-246c-2-2-3-2-3-3-1-2-1-3-1-5v-1-2-481-2-1c0-2 1-3 1-5 0 0 0 0 1-1l2-2 1-1c0 0 0 0 2-1l396-247h2 1c2 0 3-1 5-1 1 0 2 0 4 1h1 2l396 247c0 0 0 0 2 1l1 1 2 2c0 0 0 0 1 1 2 2 2 3 2 5v1 2 479c-5 0-5 1-5 2z m-396 218l356-220-155-100-201 115v205z m-29 0v-205l-201-115-155 100 356 220z m-368-246l152-99v-231l-152-100v430z m369-678h-1l-355 222 155 100 201-116v-206z m13 230l-201 116v232l201 115 201-115v-232l-201-116z m15-230v206l201 116 155-100-356-222z m367 248l-152 98v233l152 99v-430z m-414 353c-4 7-13 10-20 6l-101-55c-5-3-7-8-7-13v-122c0-9 5-14 14-14 9 0 14 5 14 14v113l95 51c7 4 10 13 5 20z" horiz-adv-x="1000" />

<glyph glyph-name="diamond-1" unicode="&#xe80d;" d="M977 762h-29v24c0 9-5 15-14 15-8 0-14-6-14-15v-24h-28c-8 0-14-5-14-14 0-7 6-14 14-14h28v-24c0-8 6-14 14-14 9 0 14 6 14 14v24h29c8 0 14 6 14 14s-6 14-14 14z m-795-846h-29v24c0 9-5 14-14 14-8 0-14-5-14-14v-24h-28c-9 0-14-5-14-14s5-14 14-14h28v-24c0-8 6-14 14-14 9 0 14 6 14 14v24h29c8 0 14 6 14 14s-7 14-14 14z m-102 132h-17v14c0 8-6 14-14 14-9 0-14-6-14-14v-14h-17c-9 0-14-6-14-14 0-9 5-14 14-14h17v-15c0-8 5-14 14-14 8 0 14 6 14 14v15h17c8 0 14 5 14 14 0 8-6 14-14 14z m775 661c-90 90-212 141-340 141-129 0-249-49-341-141-90-91-141-212-141-341 0-128 50-248 141-340 91-90 212-141 341-141 128 0 248 49 340 141 91 90 142 212 142 340 0 129-51 250-142 341z m-19-20c39-40 70-85 93-134l-222-81c-10 17-23 34-37 48-18 19-39 33-63 44l94 215c50-21 95-52 135-92z m-130-321c0-50-20-98-56-134s-84-55-135-55-99 20-134 55c-36 36-55 84-55 134 0 51 19 99 55 135 35 35 83 55 134 55s99-20 134-55c35-36 57-84 57-135z m-191 454c55 0 110-10 159-30l-94-215c-21 8-43 10-65 10-24 0-48-4-71-11l-89 218c51 18 105 28 160 28z m-319-133c39 40 84 71 134 93l89-217c-21-10-41-24-58-41-16-16-28-33-38-51l-221 83c23 48 54 93 94 133z m-133-321c0 55 10 111 30 160l218-82c-9-24-14-51-14-78 0-19 3-39 9-57l-213-102c-20 51-30 104-30 159z m133-319c-40 40-71 85-94 134l212 102c12-25 27-49 47-69 15-16 32-27 49-37l-82-220c-48 19-93 51-132 90z m319-133c-55 0-110 10-160 30l82 219c26-10 51-14 79-14 24 0 47 4 70 11l90-216c-51-20-105-30-161-30z m321 133c-40-39-85-71-135-93l-90 216c21 10 41 24 59 42s34 41 44 65l213-96c-21-49-52-94-91-134z m-112 256c6 20 10 42 10 63 0 29-6 55-16 81l221 80c19-50 29-104 29-159 0-55-10-110-29-160l-215 95z m-213 215c-84 0-151-68-151-152 0-8 5-14 14-14 8 0 14 6 14 14 0 68 55 123 123 123 8 0 14 6 14 14 0 7-6 15-14 15z" horiz-adv-x="1000" />

<glyph glyph-name="015-diamond" unicode="&#xe80e;" d="M157 781h-29v25c0 9-6 15-15 15-9 0-14-6-14-15v-25h-30c-9 0-15-6-15-15 0-7 8-14 15-14h30v-25c0-9 5-15 14-15 9 0 15 6 15 15v25h29c9 0 15 5 15 14 0 9-6 15-15 15z m828-79h-29v25c0 8-6 14-15 14-9 0-14-6-14-14v-25h-30c-9 0-15-6-15-15 0-9 6-15 15-15h30v-25c0-9 5-15 14-15 9 0 15 6 15 15v25h29c9 0 15 6 15 15 0 9-7 15-15 15z m-906-30h-17v15c0 9-6 15-15 15s-15-6-15-15v-15h-17c-9 0-15-6-15-15 0-8 6-14 15-14h17v-15c0-9 6-15 15-15s15 8 15 15v15h17c9 0 15 6 15 14 0 9-6 15-15 15z m875-156c0 2-1 2-1 3 0 2-1 2-1 3l-256 255c0 0-2 1-3 1l-2 1c-1 0-1 0-3 0s-1 0-3 0h-360c-1 0-3 0-3 0-1 0-1 0-3 0-1 0-3-1-4-2 0 0 0 0-2 0l-254-255-2-1c0-2-1-2-1-3s0-2 0-3c0-2 0-2 0-3v-362c0-1 0-1 0-3 0-1 0-1 0-3 0-1 1-3 3-4l256-256c0 0 1-2 3-2 1 0 1-1 3-1 1 0 3-2 4-2h360 2c1 0 3 0 3 0l1 2c2 0 2 1 3 1l256 256c2 2 2 3 3 5 0 1 0 1 0 3s0 1 0 3v363c0 1 0 1 0 3 3 0 3 0 1 1z m-264 225l223-223-198-71-111 110 86 184z m7-317v-164l-116-116h-163l-116 116v164l116 116h163l116-116z m-34 328l-85-184h-157l-74 184h316z m-344-12l75-184-110-110-188 70 223 224z m-235-250l188-71v-157l-188-90v318z m235-569l-225 225 190 89 110-110-75-204z m27-12l76 204h156l85-204h-317z m345 12l-85 204 110 110 200-89-225-225z m236 251l-200 90v157l200 72v-319z m-471 324c-6 6-15 6-21 0l-89-86c-3-3-5-7-5-10v-110c0-9 6-15 15-15 9 0 15 6 15 15v104l85 81c6 6 6 15 0 21z" horiz-adv-x="1000" />

<glyph glyph-name="earrings-4" unicode="&#xe80f;" d="M903 166c-35 51-93 81-151 86v36c21 3 42 9 60 22 29 21 49 51 56 87 6 35-2 70-23 100-22 33-54 50-89 57 1 3 3 6 3 11 0 8-3 14-10 19v53c10 2 24 8 35 19 23 21 34 56 34 104v7c0 22-9 43-26 59-16 16-36 24-59 24-46 0-83-38-82-86 0-2 0-4-8-4-9 0-16-8-14-17 0-10 8-16 18-15 16 2 25 8 30 15 8 9 8 21 8 24 0 29 23 51 51 51 15 0 28-5 37-14 10-10 16-23 16-37v-7c0-37-8-64-22-80-15-13-29-13-29-13-5 0-8-1-13-4-3-4-5-8-5-12l2-67c-5-5-10-11-10-19 0-3 2-8 4-11-20-4-37-10-53-23-29-21-50-51-56-86-7-36 1-71 22-101 21-29 51-50 87-56 3 0 6-2 9-2v-35c-33-4-67-15-98-36-91-62-113-189-51-280 35-55 98-85 162-85 40 0 80 11 114 35 45 31 73 77 83 130 10 53-1 106-32 151z m-186 154c-27 4-50 19-66 41-16 23-20 50-16 77 5 27 20 50 42 66 18 13 39 18 58 18 32 0 64-17 85-44 16-22 21-49 16-77s-19-49-42-65c-22-16-50-21-77-16z m188-300c-8-45-34-84-71-109-77-53-183-34-235 43-53 77-34 183 43 236 29 21 62 30 96 30 54 0 107-25 139-73 26-37 36-82 28-127z m-481 146c-35 51-93 81-151 86v36c21 3 42 9 60 22 28 21 49 51 56 87 6 35-2 70-23 100-22 33-54 50-90 57 2 3 4 6 4 11 0 8-4 14-10 19v53c10 2 24 8 35 19 23 21 34 56 34 104v7c0 22-10 43-26 59s-37 24-59 24c-46 0-83-38-82-86 0-2 0-4-8-4-9 0-16-8-14-17 0-10 8-16 17-15 17 2 26 8 31 15 8 9 8 21 8 24 0 29 22 51 51 51 15 0 27-5 37-14 10-10 16-23 16-37v-7c0-37-8-64-22-80-15-13-29-13-29-13-5 0-8-1-13-4-3-4-5-8-5-12l2-67c-5-5-10-11-10-19 0-3 2-8 3-11-19-4-36-10-52-23-29-21-50-51-57-86-6-36 2-71 23-101 21-29 51-50 86-56 4 0 7-2 10-2v-35c-34-4-67-15-98-36-91-62-114-189-51-280 34-55 98-85 162-85 40 0 80 11 114 35 44 31 73 77 83 130 10 53-2 106-32 151z m-188 154c-25 4-49 19-65 41-16 23-21 50-16 77 4 27 19 50 41 66 18 13 39 18 58 18 32 0 64-17 85-44 16-22 21-49 16-77s-19-49-42-65c-22-16-49-21-77-16z m188-300c-8-45-34-84-71-109-75-53-181-34-235 43-53 77-34 183 43 236 29 21 63 30 96 30 55 0 108-25 140-73 25-37 35-82 27-127z" horiz-adv-x="1000" />

<glyph glyph-name="earrings-3" unicode="&#xe810;" d="M310 390c9 2 17 5 25 10 20 13 32 32 36 53 4 22 0 45-13 63-11 17-29 29-48 33 1 4 3 8 3 13 0 8-3 15-8 20v54c9 2 24 8 37 20 22 20 35 56 35 104v6c0 47-37 84-84 84s-83-37-83-85c0-2 0-3-8-3-10 0-16-8-15-18 0-10 8-16 18-15 16 2 26 9 31 13 8 10 8 21 8 24 0 29 24 52 51 52 29 0 52-23 52-52v-6c0-37-9-64-25-80-16-15-32-13-32-13-5 0-9-2-13-5s-4-8-4-11v-68c-7-5-10-11-10-19 0-5 2-8 3-13-8-2-16-5-24-11-19-13-32-32-35-53-5-23 0-45 12-63 12-18 29-29 49-34-31-62-145-297-145-373 0-91 74-165 166-165s165 74 165 165c0 76-112 309-144 373z m-65 52c-8 11-11 25-8 38 3 15 11 26 23 34 8 6 19 10 29 10 3 0 6 0 9-2 15-3 26-11 34-22s11-26 8-39c-3-14-11-26-22-34-12-8-26-11-39-8-14 3-26 11-34 23z m44-558c-74 0-134 59-134 133 0 58 87 248 134 344 46-96 133-286 133-344 0-74-59-133-133-133z m445 505c10 3 18 6 26 11 38 26 48 79 21 117-12 18-29 29-49 34 2 3 4 8 4 13 0 8-4 14-10 19v53c10 2 24 8 35 20 23 20 34 56 34 104v6c0 23-10 44-26 60s-37 24-59 24-44-10-60-26-24-37-24-61c0-1 0-3-8-3-9 0-16-8-14-18 0-9 8-16 17-14 17 1 26 8 31 14 8 10 8 21 8 24 0 13 5 26 14 36s23 16 37 16c15 2 28-5 37-15 10-9 17-22 17-37v-6c0-37-9-64-23-80-14-13-29-13-29-13-5 0-10-2-13-5-3-3-5-8-5-11l2-68c-5-5-10-11-10-19 0-5 2-8 4-13-8-3-18-6-26-11-39-26-48-79-21-118 11-17 29-29 47-33-31-63-145-298-145-373 0-92 74-166 165-166 92 0 166 74 166 166 2 77-111 310-143 373z m-64 51c-8 11-12 26-8 39 3 14 9 25 21 33 8 7 19 10 28 10 4 0 7 0 10-2 15-3 26-9 34-20 16-25 11-57-13-73-24-16-56-9-72 13z m43-558c-74 0-133 60-133 134 0 58 86 247 133 344 48-97 134-286 134-344 0-73-60-134-134-134z" horiz-adv-x="1000" />

<glyph glyph-name="earrings-2" unicode="&#xe811;" d="M417 174c62 40 78 124 36 185-15 21-34 37-57 47 15 12 25 29 29 48 5 22 0 45-12 63-12 17-29 29-49 34 2 3 4 8 4 12 0 8-4 15-9 20v53c10 1 25 8 37 19 23 21 36 57 36 105v6c0 47-37 84-84 84s-84-37-84-85c0-2 0-4-8-4-9 0-16-8-14-17 0-10 8-16 18-15 16 2 25 8 30 13 8 10 8 21 8 24 0 29 24 52 52 52 29 0 51-23 51-52v-6c0-37-8-65-24-81-14-13-29-13-30-13-5 0-10-1-13-4-4-4-5-8-5-12v-67c-7-5-10-12-10-20 0-4 2-8 3-12-11-2-19-5-27-12-19-13-32-32-35-53-5-22 0-45 12-63 5-6 10-13 17-17-7-4-13-7-20-12-61-42-77-124-37-185 21-32 53-51 89-56-23-45-77-163-77-203 0-55 45-100 99-100s100 45 100 100c0 42-55 158-77 203 18 3 35 9 51 21z m-125 306c3 14 11 25 22 33 8 7 20 10 29 10 4 0 7 0 10-1 15-4 26-12 34-23 8-11 11-26 8-39-3-14-11-25-23-33-24-17-56-10-72 14-8 11-11 26-8 39z m-32-253c-31 47-20 109 27 142 18 11 37 17 56 17 7 0 13 0 20-1 27-5 50-21 64-44 31-47 19-111-27-142-23-14-50-20-76-16-27 5-50 21-64 44z m151-279c0-37-31-67-68-67s-67 30-67 67c0 28 37 113 67 176 29-63 68-148 68-176z m377 311c6 35-2 71-21 100-15 21-34 37-57 47 33 27 39 75 15 111-11 17-29 29-48 34 1 3 3 8 3 12 0 8-3 15-10 20v53c10 1 24 8 36 19 22 21 33 57 33 105v6c0 23-9 44-25 60s-37 24-60 24c-47 0-84-39-82-87 0-2 0-3-8-3-10 0-16-8-15-18 0-10 9-16 18-14 16 1 26 8 31 14 8 10 8 21 8 24 0 29 22 52 51 52 15 1 28-5 37-15 10-9 16-22 16-37v-6c0-37-8-65-22-81-15-13-29-13-29-13-5 0-8-1-13-4-3-4-5-8-5-12l2-67c-5-5-10-12-10-20 0-4 2-8 3-12-8-4-17-7-25-12-20-13-31-32-36-54-5-23 0-46 13-63 5-7 10-12 16-16-6-4-13-7-19-12-29-21-48-51-55-85-6-35 2-71 21-100 21-30 53-50 87-55-23-45-77-162-77-203 0-54 45-99 100-99 54 0 99 45 99 99 0 42-54 158-77 203 19 4 37 10 53 21 26 20 45 50 52 84z m-185 221c3 14 9 25 21 33 8 7 19 10 29 10 3 0 6 0 9-1 15-4 26-10 34-21 16-25 10-57-13-73-8-6-19-10-29-10-3 0-6 0-10 2-14 3-25 10-33 21-8 11-10 24-8 39z m122-532c0-37-31-67-68-67s-67 30-67 67c0 28 37 113 67 176 31-63 68-148 68-176z m-11 253c-47-32-110-21-142 26-16 22-21 50-16 76 5 27 19 49 42 66 17 11 37 17 58 17 6 0 13 0 17-1 28-5 50-20 66-42 17-23 21-50 17-76-4-27-20-51-42-66z" horiz-adv-x="1000" />

<glyph glyph-name="earrings-1" unicode="&#xe812;" d="M429 467c-29 44-74 74-127 84-5 2-11 2-16 2 2 3 2 6 2 11 0 8-4 14-8 19v53c9 2 24 8 37 20 22 20 35 56 35 104v6c0 47-37 84-84 84-46 0-83-37-83-85 0-2 0-3-8-3-10 0-16-8-15-18 0-10 8-16 18-15 16 2 26 9 30 13 8 10 8 21 8 24 0 29 25 52 52 52 29 0 51-23 51-52v-6c0-37-8-64-24-80-16-13-32-13-32-13-5 0-10-2-13-5s-5-8-5-11v-68c-6-5-9-11-9-19 0-3 1-7 1-10-32-3-62-14-90-34-45-30-75-75-85-128s0-106 31-151c30-45 75-76 128-85 5-2 12-2 16-2-22-45-77-161-77-203 0-54 45-99 100-99s100 45 100 99c0 42-55 156-78 203 33 3 63 14 90 34 45 30 76 75 86 128 9 53 0 106-31 151z m-98-517c0-37-31-68-68-68s-67 31-67 68c0 27 37 112 67 175 31-63 68-148 68-175z m98 371c-8-45-34-83-72-108-37-25-84-33-127-25-45 8-84 33-108 72-26 37-34 84-26 127 8 45 34 84 73 108 29 19 61 29 94 29 12 0 23-2 33-4 45-8 83-33 107-72 26-38 36-83 26-127z m-53 108c-42 63-127 79-188 37-63-42-79-127-37-188 26-39 69-60 112-60 26 0 54 8 76 23 63 42 79 127 37 188z m-55-163c-48-32-112-19-144 29-33 49-20 113 29 145 17 11 38 18 57 18 34 0 66-16 87-45 31-50 18-114-29-147z m529 163c-42 63-127 79-188 37-30-21-50-52-58-87-6-35 0-72 21-101 26-39 69-60 113-60 25 0 53 8 75 23 31 21 50 51 58 87 7 35 0 72-21 101z m-11-95c-5-27-21-51-43-66-49-32-113-19-145 29-32 48-19 113 29 145 18 11 38 17 58 17 34 0 66-16 87-45 14-25 20-54 14-80z m64 133c-35 52-90 81-146 86 2 3 2 6 2 11 0 8-4 14-10 19v53c10 2 24 8 35 20 23 20 34 56 34 104v6c0 23-10 44-26 60s-37 24-59 24-43-10-60-26-24-37-24-61c0-1 0-3-8-3-9 0-16-8-14-18 0-9 8-16 17-14 17 1 26 8 31 14 8 10 8 21 8 24 0 13 5 26 15 36s22 16 37 16c14 0 27-5 37-15 9-9 16-22 16-37v-6c0-37-8-64-23-80-14-13-29-13-29-13-5 0-10-2-13-5-3-3-5-8-5-11l2-68c-5-5-10-11-10-19 0-3 2-8 4-11-31-4-61-15-89-34-91-63-114-190-51-281 34-50 87-79 143-86-23-45-77-161-77-202 0-55 45-100 99-100s100 45 100 100c0 41-55 157-77 202 32 4 64 15 91 34 91 64 115 190 50 281z m-98-517c0-37-30-68-67-68-37 0-68 31-68 68 0 27 37 112 68 175 30-63 67-148 67-175z m29 263c-77-53-183-33-236 44s-34 183 43 236c29 21 63 31 97 31 54 0 106-26 140-73 53-78 33-185-44-238z" horiz-adv-x="1000" />

<glyph glyph-name="earrings" unicode="&#xe813;" d="M366 268c38 10 66 45 66 85 0 42-63 169-74 190 6 5 9 11 9 19s-3 15-8 20v53c10 1 24 8 37 19 23 21 36 56 36 104v7c0 46-37 83-84 83s-83-37-83-83v-3c0 0-4-2-7-2-10 0-16-8-14-18 0-9 8-16 17-14 16 1 26 8 31 13 3 9 3 19 3 24 0 29 24 51 52 51 28 0 51-22 51-51v-7c0-37-8-64-24-80-15-13-29-13-31-13-5 0-9-1-13-5-1-3-3-6-3-11v-67c-6-5-9-12-9-20s3-14 9-19c-11-21-74-148-74-190 0-40 28-75 65-85-29-61-110-227-110-285 0-74 60-133 134-133 74 0 133 59 133 133 0 58-80 226-109 285z m-79 85c0 23 31 94 56 148 26-54 57-125 57-148 0-30-26-56-57-56-32 0-56 24-56 56z m56-473c-56 0-101 46-101 102 0 43 64 185 101 262 37-77 102-217 102-262 0-56-45-102-102-102z m336 388c37 11 65 45 65 85 0 42-66 174-74 192 4 4 8 11 8 19s-4 14-10 19v53c10 2 24 8 35 20 23 20 34 56 34 104v6c0 23-9 44-26 60-16 16-37 24-59 24-47 0-84-39-82-87 0-1 0-3-8-3-10 0-16-8-15-18 0-9 9-16 18-14 16 1 26 8 31 14 8 10 8 21 8 24 0 29 22 52 51 52 15 0 28-5 37-15 10-9 16-22 16-37v-6c0-37-8-64-22-80-15-13-29-13-29-13-5 0-8-2-13-5-3-3-5-8-5-11l2-68c-5-5-10-11-10-19s5-16 11-21c-13-24-72-148-72-188 0-40 27-76 64-85-29-61-109-227-109-285 0-74 59-133 133-133s134 59 134 133c-3 55-82 222-113 283z m-80 85c0 23 30 94 56 148 26-54 56-125 56-148 0-30-25-56-56-56s-56 24-56 56z m56-473c-56 0-101 46-101 102 0 43 64 185 101 262 37-77 101-217 101-262 0-55-45-102-101-102z" horiz-adv-x="1000" />

<glyph glyph-name="gift" unicode="&#xe814;" d="M957 746h-82c-1 26-10 47-27 64-27 26-71 40-135 40-58 0-120-21-154-57-1 28-26 51-58 51-32 0-58-23-59-51-33 35-96 56-154 56-64 0-108-14-134-40-17-16-25-39-28-65h-82c-7 0-12-5-12-12v-209c0-8 5-13 12-13h23v-648c0-7 4-12 12-12h842c7 0 12 5 12 12v651h23c7 0 12 5 12 12v208c1 8-5 13-11 13z m-244 79c56 0 96-11 117-32 13-13 19-28 20-47h-290c8 42 79 79 153 79z m-246-35c0 17 16 29 34 29 18 0 33-12 33-29v-44h-67v44z m-295 3c21 21 61 32 117 32 75 0 146-37 153-79h-290c2 19 8 34 20 47z m16-916h-95v636h95v-636z m120-1h-96v637h96v-637z m120 0h-95v637h95v-637z m121 0h-96v637h96v-637z m121 0h-96v637h96v-637z m119 1h-94v636h94v-636z m121-1h-96v637h96v-637z m-852 662v183h885v-183h-885z" horiz-adv-x="1000" />

<glyph glyph-name="ring" unicode="&#xe815;" d="M531 618l124 116c0 0 0 1 1 1 1 1 1 1 1 3v1c0 1 0 2 0 2s0 0 0 2v1c0 1 0 3 0 3s0 1-1 1c0 0 0 0 0 1l-55 95c-3 3-6 6-12 6h-180c-5 0-9-3-11-6l-56-94c0 0 0 0 0-1 0 0 0-1-2-1 0-1 0-1 0-3v-1c0 0 0 0 0-1 0-2 0-3 0-3v-1c0-1 2-1 2-3 0 0 0-1 1-1l124-116c-196-17-351-183-351-385 0-212 172-384 384-384s384 172 384 384c0 202-155 367-353 384z m-2 33l32 79h53l-85-79z m53 172l41-67h-64l-40 67h63z m-53-67h-63l31 53 32-53z m-112 67h60l-40-67h-60l40 67z m-31-93h49l31-74-80 74z m76 0h71l-36-88-35 88z m38-853c-197 0-359 161-359 357s161 359 359 359 359-161 359-359-162-357-359-357z m231 590c-61 61-144 96-231 96-87 0-170-35-231-96-129-128-129-336-1-464 63-64 148-96 231-96 83 0 167 32 231 96 61 62 96 145 96 231s-33 170-95 233z m-19-445c-117-117-309-117-428 0-116 117-116 308 1 427 58 57 133 88 214 88 80 0 157-32 213-88 58-57 88-133 88-213s-32-157-88-214z" horiz-adv-x="1000" />
</font>
</defs>
</svg>
